<svg id="Layer_1" data-name="Layer 1" xmlns="http://www.w3.org/2000/svg" viewBox="0 0 500.77 93.32"><defs><style>.cls-1{fill:none;}.cls-2{fill:#5dbbf4;}.cls-3{fill:#ff703e;}.cls-4{fill:#ff6a48;}.cls-5{fill:#61ff40;}.cls-6{fill:#33b0e2;}</style></defs><polygon class="cls-1" points="339.11 60.99 364.24 60.99 351.79 35.86 339.11 60.99"/><path class="cls-2" d="M129.16,92.18h22.73c0-9.71-.11-20.22-.11-29.93h42.95V45.69H151.78c0-5.95.11-11.2.11-17.14h52V12.1H129.16Z" transform="translate(0.77)"/><polygon class="cls-2" points="216.06 12.1 216.18 91.98 233.84 12.1 216.06 12.1"/><polygon class="cls-2" points="238.98 92.18 293.98 92.18 293.98 74.93 242.8 74.93 238.98 92.18"/><path class="cls-2" d="M342.91,11.87,300.3,92.18h22.51l7.65-15h40.78l7,15h23.08L360.51,11.87ZM338.34,61,351,35.86,363.48,61Z" transform="translate(0.77)"/><path class="cls-2" d="M450.65,61.33H479c0,2.86-.11,5.15-.11,8-6.17,3.89-15.54,6.51-24.57,6.51-15.19,0-27.3-9.48-27.3-24.44,0-14.4,11.31-23.54,27.3-23.54a60.39,60.39,0,0,1,18.4,2.63c3.88,1.37,13,5.25,17.13,7.88L500,25.12C496.69,22,485.83,16,477.15,13.47s-18.39-2.75-22.62-2.75c-22.62,0-49,13.49-49,41.13,0,27.19,25.82,41.47,48.78,41.47A78.88,78.88,0,0,0,483,87.84c7.19-2.86,13-6.28,16.33-9V45.69H450.65Z" transform="translate(0.77)"/><polygon class="cls-3" points="216.13 92.18 216.18 92.18 216.18 91.98 216.13 92.18"/><polygon class="cls-4" points="238.91 74.93 238.91 12.1 233.84 12.1 216.18 91.98 216.18 92.18 238.98 92.18 242.8 74.93 238.91 74.93"/><polygon class="cls-5" points="256.69 12.1 238.91 12.1 238.91 51.53 238.91 74.93 238.91 92.18 242.77 74.93 242.8 74.93 256.69 12.1"/><polygon class="cls-6" points="26.24 46.66 96.77 46.66 72.76 93.32 0 93.32 26.24 46.66"/><polygon class="cls-2" points="26.24 46.66 96.77 46.66 72.76 0 0 0 26.24 46.66"/><circle class="cls-4" cx="96.09" cy="84.58" r="8.75"/><polygon class="cls-5" points="72.76 93.32 72.76 46.66 96.77 46.66 72.76 93.32"/></svg>